<svg width="398" height="251" viewBox="0 0 398 251" fill="none" xmlns="http://www.w3.org/2000/svg">
<rect x="97.4296" y="75.1011" width="202.976" height="24.3572" fill="#F5F5F5"/>
<rect x="97.5459" y="75.4355" width="202.895" height="109.251" fill="#F5F5F5"/>
<rect x="108" y="126" width="182" height="87" fill="#F5F5F5"/>
<rect x="100.99" y="211.158" width="48.9641" height="15.3013" transform="rotate(180 100.99 211.158)" fill="#F5F5F5"/>
<rect width="48.9641" height="15.3013" transform="matrix(1 8.74228e-08 8.74228e-08 -1 296.844 211.158)" fill="#F5F5F5"/>
<rect width="48.9641" height="15.3013" transform="matrix(1 8.74228e-08 8.74228e-08 -1 318.267 189.736)" fill="#F5F5F5"/>
<rect x="79.5652" y="189.736" width="48.9641" height="15.3013" transform="rotate(180 79.5652 189.736)" fill="#F5F5F5"/>
<rect x="67.3226" y="195.856" width="55.0846" height="15.3013" transform="rotate(90 67.3226 195.856)" fill="#F5F5F5"/>
<rect width="55.0846" height="15.3013" transform="matrix(-1.39071e-07 1 1 1.39071e-07 330.508 195.856)" fill="#F5F5F5"/>
<rect width="55.0846" height="15.3013" transform="matrix(-1.39071e-07 1 1 1.39071e-07 351.927 174.435)" fill="#F5F5F5"/>
<rect x="45.9056" y="174.435" width="55.0846" height="15.3013" transform="rotate(90 45.9056 174.435)" fill="#F5F5F5"/>
<rect x="80.6381" y="104.049" width="235.41" height="53.325" fill="#F5F5F5"/>
<rect x="144" y="29" width="12" height="66" fill="#F5F5F5"/>
<rect x="133.963" width="32.4762" height="32.4762" fill="#F5F5F5"/>
<rect x="242" y="29" width="12" height="52" fill="#F5F5F5"/>
<rect x="231.394" width="32.4762" height="32.4762" fill="#F5F5F5"/>
<rect x="40.5962" y="73.0713" width="36.5357" height="24.3572" fill="#F5F5F5"/>
<rect x="30.4463" y="101.489" width="36.5357" height="24.3572" fill="#F5F5F5"/>
<rect x="10.1499" y="52.7739" width="36.5357" height="24.3572" fill="#F5F5F5"/>
<rect y="81.1909" width="36.5357" height="24.3572" fill="#F5F5F5"/>
<rect width="36.5357" height="24.3572" transform="matrix(-1 0 0 1 357.238 71.042)" fill="#F5F5F5"/>
<rect width="36.5357" height="24.3572" transform="matrix(-1 0 0 1 367.387 99.4585)" fill="#F5F5F5"/>
<rect width="36.5357" height="24.3572" transform="matrix(-1 0 0 1 387.684 50.7437)" fill="#F5F5F5"/>
<rect width="36.5357" height="24.3572" transform="matrix(-1 0 0 1 397.834 79.1616)" fill="#F5F5F5"/>
</svg>
